<svg width="50" height="50" viewBox="0 0 50 50" fill="none" xmlns="http://www.w3.org/2000/svg">
<path d="M15.0045 50C13.6291 50 12.452 49.5108 11.4734 48.5325C10.4931 47.5525 10.003 46.375 10.003 45C10.003 43.625 10.4931 42.4475 11.4734 41.4675C12.452 40.4892 13.6291 40 15.0045 40C16.3799 40 17.5569 40.4892 18.5355 41.4675C19.5158 42.4475 20.006 43.625 20.006 45C20.006 46.375 19.5158 47.5525 18.5355 48.5325C17.5569 49.5108 16.3799 50 15.0045 50ZM40.0119 50C38.6365 50 37.4595 49.5108 36.4809 48.5325C35.5006 47.5525 35.0104 46.375 35.0104 45C35.0104 43.625 35.5006 42.4475 36.4809 41.4675C37.4595 40.4892 38.6365 40 40.0119 40C41.3873 40 42.5652 40.4892 43.5455 41.4675C44.5241 42.4475 45.0134 43.625 45.0134 45C45.0134 46.375 44.5241 47.5525 43.5455 48.5325C42.5652 49.5108 41.3873 50 40.0119 50ZM15.0045 37.5C13.1289 37.5 11.7118 36.6767 10.7532 35.03C9.79458 33.385 9.7529 31.75 10.6282 30.125L14.0042 24L5.00149 5H2.43823C1.72968 5 1.14617 4.76 0.687705 4.28C0.229235 3.80167 0 3.20833 0 2.5C0 1.79167 0.240071 1.1975 0.720214 0.7175C1.19869 0.239166 1.7922 0 2.50074 0H6.56445C7.02292 0 7.46055 0.125 7.87734 0.375C8.29414 0.625 8.60673 0.979167 8.81512 1.4375L10.5031 5H47.3891C48.5144 5 49.2855 5.41667 49.7023 6.25C50.1191 7.08333 50.0982 7.95833 49.6398 8.875L40.7621 24.875C40.3037 25.7083 39.6993 26.3542 38.9491 26.8125C38.1989 27.2708 37.3444 27.5 36.3858 27.5H17.7553L15.0045 32.5H42.5752C43.2837 32.5 43.8672 32.7392 44.3257 33.2175C44.7842 33.6975 45.0134 34.2917 45.0134 35C45.0134 35.7083 44.7733 36.3017 44.2932 36.78C43.8147 37.26 43.2212 37.5 42.5126 37.5H15.0045Z" fill="#885265"/>
</svg>
