<svg width="14" height="14" viewBox="0 0 14 14" fill="none" xmlns="http://www.w3.org/2000/svg">
<path d="M4.72064 1.53125C2.96211 1.53125 1.53125 2.96295 1.53125 4.72192V9.27893C1.53125 11.0377 2.96295 12.4688 4.72192 12.4688H9.27893C11.0377 12.4688 12.4688 11.037 12.4688 9.27808V4.72064C12.4688 2.96211 11.037 1.53125 9.27808 1.53125H4.72064ZM10.2812 3.28125C10.5227 3.28125 10.7188 3.47725 10.7188 3.71875C10.7188 3.96025 10.5227 4.15625 10.2812 4.15625C10.0398 4.15625 9.84375 3.96025 9.84375 3.71875C9.84375 3.47725 10.0398 3.28125 10.2812 3.28125ZM7 4.15625C8.56844 4.15625 9.84375 5.43156 9.84375 7C9.84375 8.56844 8.56822 9.84375 7 9.84375C5.43156 9.84375 4.15625 8.56822 4.15625 7C4.15625 5.43178 5.43156 4.15625 7 4.15625ZM7 5.03125C5.91259 5.03125 5.03125 5.91259 5.03125 7C5.03125 8.08741 5.91259 8.96875 7 8.96875C8.08741 8.96875 8.96875 8.08741 8.96875 7C8.96875 5.91259 8.08741 5.03125 7 5.03125Z" fill="white"/>
</svg>
