<svg width="10" height="10" viewBox="0 0 10 10" fill="none" xmlns="http://www.w3.org/2000/svg">
<path d="M6.51789 7.66619L5.94862 5.7457L7.3718 4.73824H5.60074L4.99984 2.78627V6.5013L6.51789 7.66619ZM2.6595 9.85428C2.41704 10.0432 2.1693 10.0484 1.91629 9.87002C1.66328 9.69161 1.57894 9.45549 1.66328 9.16164L2.56462 6.24944L0.271728 4.62805C0.0187191 4.44964 -0.0576054 4.21352 0.0427549 3.91967C0.142694 3.62583 0.345523 3.47891 0.651242 3.47891H3.48178L4.39894 0.456508C4.45165 0.309586 4.53346 0.196666 4.64436 0.117748C4.75484 0.0392494 4.87333 0 4.99984 0C5.12634 0 5.24484 0.0392494 5.35532 0.117748C5.46622 0.196666 5.54802 0.309586 5.60074 0.456508L6.51789 3.47891H9.34843C9.65415 3.47891 9.85719 3.62583 9.95755 3.91967C10.0575 4.21352 9.98096 4.44964 9.72795 4.62805L7.43505 6.24944L8.3364 9.16164C8.42073 9.45549 8.3364 9.69161 8.08339 9.87002C7.83038 10.0484 7.58264 10.0432 7.34017 9.85428L4.99984 8.07547L2.6595 9.85428Z" fill="#FFAE00"/>
</svg>
