<svg width="13" height="13" viewBox="0 0 13 13" fill="none" xmlns="http://www.w3.org/2000/svg">
<path d="M2.86004 1.03998C1.85488 1.03998 1.04004 1.85482 1.04004 2.85998V10.14C1.04004 11.1451 1.85488 11.96 2.86004 11.96H10.14C11.1452 11.96 11.96 11.1451 11.96 10.14V2.85998C11.96 1.85482 11.1452 1.03998 10.14 1.03998H2.86004ZM3.40238 3.37998H5.46613L6.93168 5.46252L8.71004 3.37998H9.36004L7.22519 5.87943L9.85769 9.61998H7.79445L6.09379 7.20381L4.03004 9.61998H3.38004L5.80027 6.78689L3.40238 3.37998ZM4.3977 3.89998L8.06562 9.09998H8.86238L5.19445 3.89998H4.3977Z" fill="white"/>
</svg>
